<?xml version="1.0" standalone="no"?>
<!DOCTYPE svg PUBLIC "-//W3C//DTD SVG 20010904//EN"
 "http://www.w3.org/TR/2001/REC-SVG-20010904/DTD/svg10.dtd">
<svg version="1.0" xmlns="http://www.w3.org/2000/svg"
 width="377.000000pt" height="265.000000pt" viewBox="0 0 377.000000 265.000000"
 preserveAspectRatio="xMidYMid meet">

<g transform="translate(0.000000,265.000000) scale(0.100000,-0.100000)"
fill="#000000" stroke="none">
<path d="M2022 2474 c-98 -26 -164 -65 -238 -141 -39 -40 -77 -73 -83 -73 -6
0 -32 15 -58 34 -123 87 -237 121 -378 113 -200 -12 -349 -105 -386 -241 -10
-36 -8 -182 2 -226 3 -12 -15 -16 -101 -21 -123 -8 -203 -32 -295 -90 -170
-107 -218 -269 -123 -413 32 -47 107 -104 163 -122 79 -26 79 -28 24 -123 -51
-88 -65 -142 -56 -218 15 -136 221 -270 469 -306 l87 -12 -94 -84 c-153 -137
-241 -196 -412 -281 -89 -44 -165 -80 -170 -80 -4 0 -21 -11 -38 -25 l-30 -24
150 0 c297 -1 558 58 798 180 91 46 249 148 262 170 14 22 52 5 114 -54 177
-166 358 -238 606 -239 190 -1 326 25 460 87 100 46 160 105 225 220 53 93 98
143 159 175 14 7 87 34 162 60 160 54 231 94 309 170 83 83 133 178 159 308
42 206 -46 400 -242 532 -27 17 -51 38 -53 45 -3 7 5 41 16 76 35 103 11 191
-79 291 -155 173 -430 232 -626 133 -38 -19 -75 -35 -81 -35 -5 0 -33 25 -62
55 -115 121 -243 175 -410 174 -53 0 -121 -7 -150 -15z m257 -39 c136 -28 253
-110 306 -214 14 -28 30 -51 37 -51 6 0 32 20 57 44 64 59 142 87 246 88 132
1 237 -41 313 -127 87 -98 73 -205 -41 -322 -28 -29 -49 -54 -46 -56 2 -2 36
-12 74 -22 208 -53 302 -155 312 -335 9 -147 -41 -256 -174 -380 -118 -110
-250 -165 -428 -177 l-90 -6 0 -76 c0 -58 -6 -87 -23 -122 -64 -132 -271 -252
-505 -294 -127 -23 -320 -16 -419 13 -167 50 -281 158 -317 302 -7 25 -14 51
-16 58 -3 7 -45 -22 -107 -74 -188 -157 -387 -277 -613 -368 -289 -117 -362
-126 -180 -22 152 86 230 142 322 229 66 63 183 209 212 265 14 27 18 26 -107
6 -238 -39 -465 13 -533 122 -55 89 -17 209 101 325 39 38 70 73 70 77 0 4
-35 12 -78 18 -105 14 -203 63 -245 122 -35 49 -47 135 -28 195 21 61 83 121
173 165 100 49 160 62 279 62 50 0 99 5 109 10 18 10 18 12 -8 68 -78 170 -12
307 182 378 130 47 287 41 401 -15 34 -17 92 -58 129 -92 37 -34 68 -60 70
-58 1 2 17 27 35 56 108 173 313 254 530 208z"/>
<path d="M1606 1990 c-47 -15 -66 -38 -66 -86 0 -50 27 -78 94 -94 91 -23 126
-41 133 -68 9 -38 -34 -72 -93 -72 -51 0 -104 23 -104 45 0 15 -35 21 -43 8
-3 -5 -1 -18 4 -30 13 -35 66 -57 139 -57 84 -1 125 20 139 70 18 67 -13 105
-104 129 -92 23 -115 35 -122 63 -9 37 26 62 89 62 39 0 53 -5 72 -25 41 -44
75 -26 41 22 -26 37 -113 53 -179 33z"/>
<path d="M1897 1963 c-4 -3 -7 -15 -7 -26 0 -10 -9 -21 -20 -24 -23 -6 -27
-33 -5 -33 12 0 15 -18 15 -105 0 -92 3 -108 20 -125 21 -21 37 -24 64 -14 25
10 19 34 -9 34 l-25 0 0 105 0 105 25 0 c16 0 25 6 25 15 0 9 -9 15 -25 15
-21 0 -25 5 -25 30 0 28 -17 40 -33 23z"/>
<path d="M2497 1940 c-4 -18 -13 -30 -22 -30 -8 0 -15 -7 -15 -15 0 -8 7 -15
15 -15 12 0 15 -19 15 -107 0 -60 4 -113 8 -119 11 -17 41 -25 68 -18 31 8 31
34 0 34 -32 0 -36 15 -36 121 0 88 0 89 25 89 16 0 25 6 25 15 0 9 -9 15 -25
15 -21 0 -25 5 -25 30 0 19 -5 30 -14 30 -7 0 -16 -13 -19 -30z"/>
<path d="M2096 1909 c-36 -6 -76 -38 -76 -60 0 -17 45 -9 58 11 26 43 120 12
110 -37 -2 -13 -13 -19 -38 -21 -71 -5 -101 -13 -120 -34 -29 -31 -26 -83 6
-115 22 -21 32 -25 66 -20 23 3 50 14 60 25 20 19 20 19 43 -4 15 -15 30 -21
44 -17 26 7 26 14 1 36 -17 14 -20 29 -20 105 0 74 -3 92 -19 106 -26 24 -70
33 -115 25z m94 -154 c0 -30 -30 -73 -57 -83 -53 -18 -92 14 -73 62 11 29 22
34 83 35 36 1 47 -3 47 -14z"/>
<path d="M2310 1775 l0 -135 25 0 c25 0 25 0 25 98 0 107 11 132 58 132 15 0
22 6 22 20 0 32 -51 27 -72 -7 l-17 -28 -1 28 c0 20 -5 27 -20 27 -19 0 -20
-7 -20 -135z"/>
<path d="M2649 1458 c-5 -41 -6 -246 -2 -260 2 -10 10 -18 17 -18 30 0 28 278
-1 288 -7 2 -14 -2 -14 -10z"/>
<path d="M1942 1438 c-7 -7 -12 -23 -12 -37 0 -15 -3 -43 -6 -63 -6 -34 -9
-37 -34 -32 -19 4 -39 -2 -67 -19 -31 -20 -41 -34 -49 -68 -13 -57 -2 -108 30
-135 30 -27 87 -29 112 -5 17 15 19 15 40 -6 17 -17 35 -23 64 -23 37 0 41 2
38 23 -2 18 -9 22 -40 21 -47 -2 -47 0 -45 194 2 154 -3 178 -31 150z m-16
-230 c-7 -48 -30 -94 -52 -102 -60 -23 -89 63 -42 124 25 32 47 40 76 27 20
-9 23 -16 18 -49z"/>
<path d="M1325 1327 c-4 -30 -5 -96 -4 -147 4 -82 6 -94 28 -111 31 -26 58
-24 97 6 29 22 54 78 41 91 -3 3 -22 -12 -43 -33 -53 -54 -72 -59 -81 -25 -11
43 -5 144 10 158 2 2 31 5 65 7 34 2 64 6 67 8 3 3 -4 14 -15 24 -15 14 -34
18 -70 16 -46 -2 -49 -1 -52 26 -2 16 -10 29 -20 31 -13 3 -18 -8 -23 -51z"/>
<path d="M1640 1313 c-8 -2 -22 -7 -30 -10 -8 -3 -23 -5 -32 -4 -25 3 -59 -78
-55 -129 4 -56 47 -100 98 -100 39 0 94 34 83 52 -4 7 -2 8 4 4 17 -10 34 41
27 75 -4 15 -19 41 -36 58 -16 17 -29 38 -29 46 0 16 -5 17 -30 8z m41 -65
c11 -9 14 -24 11 -53 -11 -95 -80 -123 -127 -51 -13 20 -13 28 -1 64 8 22 12
43 9 46 -4 3 5 6 20 6 14 0 29 5 32 10 6 10 24 3 56 -22z"/>
<path d="M2366 1312 c-3 -5 16 -40 43 -78 69 -101 62 -152 -39 -254 -28 -28
-50 -57 -50 -65 0 -23 37 -28 59 -8 24 23 78 118 116 203 8 19 24 49 34 65 11
17 20 39 20 51 1 11 10 29 21 39 21 19 27 55 10 55 -5 0 -21 -22 -34 -49 -14
-27 -32 -51 -41 -54 -8 -4 -15 -13 -15 -22 0 -8 -4 -15 -10 -15 -5 0 -10 7
-10 15 0 19 -25 61 -59 98 -26 28 -36 33 -45 19z"/>
<path d="M2185 1300 c-3 -5 -15 -10 -26 -10 -10 0 -20 -4 -20 -10 -3 -19 -5
-25 -17 -47 -7 -12 -12 -26 -11 -30 1 -4 0 -10 -1 -13 -1 -3 -4 -23 -6 -46 -3
-33 1 -45 20 -63 13 -12 32 -23 42 -23 34 -3 74 12 74 27 0 26 21 27 41 1 11
-15 25 -23 31 -20 7 4 8 2 4 -5 -4 -6 0 -14 9 -17 23 -9 28 1 14 28 -7 12 -14
28 -14 33 -1 6 -4 17 -7 25 -18 44 -21 59 -24 105 -3 32 -10 54 -21 63 -20 14
-79 16 -88 2z m59 -77 c-2 -65 -17 -109 -36 -105 -9 1 -18 -4 -22 -13 -10 -27
-34 -16 -40 18 -10 54 40 146 79 147 18 0 21 -6 19 -47z"/>
<path d="M2649 1098 c-10 -18 -8 -24 7 -35 23 -17 33 -16 40 1 6 17 -12 56
-26 56 -5 0 -15 -10 -21 -22z"/>
</g>
</svg>
